<svg width="44" height="46" viewBox="0 0 44 46" fill="none" xmlns="http://www.w3.org/2000/svg">
<path fill-rule="evenodd" clip-rule="evenodd" d="M21.5386 39.9697C17.3497 37.4093 13.4529 34.3958 9.91777 30.9832C7.43244 28.5256 5.54037 25.5296 4.38651 22.2245C2.31011 15.8131 4.73549 8.47325 11.5231 6.30108C15.0903 5.1605 18.9863 5.81239 21.9923 8.05283C24.9994 5.81512 28.8941 5.16346 32.4615 6.30108C39.2491 8.47325 41.6919 15.8131 39.6155 22.2245C38.4617 25.5296 36.5696 28.5256 34.0843 30.9832C30.5492 34.3958 26.6523 37.4093 22.4634 39.9697L22.0097 40.25L21.5386 39.9697Z" stroke="#A03720" stroke-width="1.5" stroke-linecap="round" stroke-linejoin="round"/>
<path opacity="0.4" d="M29.2158 13.5183C31.2717 14.1706 32.7324 16.0037 32.915 18.1604" stroke="#A03720" stroke-width="1.5" stroke-linecap="round" stroke-linejoin="round"/>
</svg>
