<svg width="1116" height="383" viewBox="0 0 1116 383" fill="none" xmlns="http://www.w3.org/2000/svg">
<rect width="1116" height="383" rx="51" fill="#E5E5E5"/>
<path fill-rule="evenodd" clip-rule="evenodd" d="M872.049 246.97C867.955 244.409 864.147 241.396 860.692 237.983C858.264 235.526 856.415 232.53 855.287 229.224C853.258 222.813 855.628 215.473 862.261 213.301C865.747 212.161 869.555 212.812 872.493 215.053C875.431 212.815 879.237 212.163 882.724 213.301C889.357 215.473 891.744 222.813 889.715 229.224C888.588 232.53 886.739 235.526 884.31 237.983C880.855 241.396 877.047 244.409 872.953 246.97L872.51 247.25L872.049 246.97Z" stroke="#A03720" stroke-width="1.5" stroke-linecap="round" stroke-linejoin="round"/>
<path opacity="0.4" d="M879.552 220.518C881.561 221.171 882.989 223.004 883.167 225.16" stroke="#A03720" stroke-width="1.5" stroke-linecap="round" stroke-linejoin="round"/>
<path fill-rule="evenodd" clip-rule="evenodd" d="M968.049 246.97C963.955 244.409 960.147 241.396 956.692 237.983C954.264 235.526 952.415 232.53 951.287 229.224C949.258 222.813 951.628 215.473 958.261 213.301C961.747 212.161 965.555 212.812 968.493 215.053C971.431 212.815 975.237 212.163 978.724 213.301C985.357 215.473 987.744 222.813 985.715 229.224C984.588 232.53 982.739 235.526 980.31 237.983C976.855 241.396 973.047 244.409 968.953 246.97L968.51 247.25L968.049 246.97Z" stroke="#A03720" stroke-width="1.5" stroke-linecap="round" stroke-linejoin="round"/>
<path opacity="0.4" d="M975.552 220.518C977.561 221.171 978.989 223.004 979.167 225.16" stroke="#A03720" stroke-width="1.5" stroke-linecap="round" stroke-linejoin="round"/>
<path fill-rule="evenodd" clip-rule="evenodd" d="M917.539 246.97C913.35 244.409 909.453 241.396 905.918 237.983C903.433 235.526 901.541 232.53 900.387 229.224C898.31 222.813 900.736 215.473 907.523 213.301C911.091 212.161 914.987 212.812 917.993 215.053C921 212.815 924.894 212.163 928.462 213.301C935.249 215.473 937.692 222.813 935.616 229.224C934.462 232.53 932.57 235.526 930.085 237.983C926.549 241.396 922.653 244.409 918.464 246.97L918.01 247.25L917.539 246.97Z" stroke="#A03720" stroke-width="1.5" stroke-linecap="round" stroke-linejoin="round"/>
<path opacity="0.4" d="M925.216 220.518C927.272 221.171 928.733 223.004 928.915 225.16" stroke="#A03720" stroke-width="1.5" stroke-linecap="round" stroke-linejoin="round"/>
<rect x="632.547" y="150.924" width="18.7863" height="25.7781" rx="5" fill="#DDA6E1"/>
<path d="M640.272 138.523C641.063 137.327 642.818 137.327 643.608 138.523L652.672 152.23C653.551 153.56 652.597 155.334 651.003 155.334H632.877C631.283 155.334 630.33 153.56 631.209 152.23L640.272 138.523Z" fill="#DDA6E1"/>
<rect x="609.735" y="161.778" width="16.1026" height="16.2809" rx="5" fill="#DDA6E1"/>
<path d="M615.46 150.652C616.253 149.482 617.977 149.482 618.771 150.652L626.038 161.369C626.938 162.697 625.987 164.492 624.383 164.492H609.848C608.243 164.492 607.292 162.697 608.193 161.369L615.46 150.652Z" fill="#DDA6E1"/>
<rect x="604.367" y="169.919" width="79.171" height="37.9887" rx="18.9944" fill="#DDA6E1"/>
<rect x="599" y="199.767" width="88.5641" height="37.9887" rx="18.9944" fill="#DDA6E1"/>
<path d="M236.543 107.872L249.138 129.718H223.948L236.543 107.872Z" fill="#B9A6E1"/>
<ellipse rx="14.7974" ry="31.5419" transform="matrix(0.851151 0.524921 -0.475486 0.879723 271.407 92.8991)" fill="#B9A6E1"/>
<ellipse cx="251.996" cy="105.93" rx="22.7238" ry="25.2443" fill="#3F0EA8"/>
<path d="M261.994 91.0099C259.936 90.12 257.778 89.1551 255.635 88.6275C254.084 88.2455 252.087 88.6108 250.494 88.6108C247.212 88.6108 243.472 92.7757 242.452 96.0413C241.807 98.1057 239.808 99.274 239.521 101.506C239.368 102.691 238.757 103.793 238.514 104.971C238.21 106.444 238.454 108.237 238.454 109.753C238.454 112.098 239.452 113.667 240.618 115.534C241.913 117.606 243.619 119.826 245.218 121.598C246.403 122.912 249.19 123.397 250.765 123.397C252.513 123.397 254.232 123.493 255.906 123.081C256.416 122.955 257.394 122.555 257.665 122.031C258.438 120.531 260.104 119.382 260.581 117.699C261.631 113.997 262.558 109.953 260.912 106.304C259.8 103.841 256.971 101.206 254.297 101.206C252.953 101.206 251.024 101.264 250.645 103.155C250.364 104.555 248.787 106.993 249.878 108.336C250.719 109.372 251.835 111.611 253.335 110.502" stroke="#B9A6E1" stroke-linecap="round" stroke-linejoin="round"/>
<ellipse cx="282.9" cy="75.8312" rx="2.72686" ry="2.9128" fill="#3F0EA8"/>
<path d="M279.905 64.3463C279.432 59.4086 277.522 54.6679 277.522 49.7139C277.522 47.0812 277.649 44.575 278.317 42.0795C279.026 39.4283 281.99 37.9558 284.272 37.4141C286.512 36.8824 288.718 36.5548 290.471 38.4273C291.266 39.2769 291.419 41.312 291.419 42.5037C291.419 43.9459 289.274 46.1088 287.956 46.1088C286.822 46.1088 284.553 46.9602 283.677 45.7907C282.79 44.6066 282.955 43.0433 284.471 42.5037" stroke="#3F0EA8" stroke-linecap="round" stroke-linejoin="round"/>
<path d="M162.543 108.872L175.138 130.718H149.948L162.543 108.872Z" fill="#DDA6E1"/>
<ellipse rx="14.7974" ry="31.5419" transform="matrix(0.851151 0.524921 -0.475486 0.879723 197.407 93.8991)" fill="#DDA6E1"/>
<ellipse cx="177.996" cy="106.93" rx="22.7238" ry="25.2443" fill="#A80E86"/>
<path d="M187.994 92.0099C185.936 91.12 183.778 90.1551 181.635 89.6275C180.084 89.2455 178.087 89.6108 176.494 89.6108C173.212 89.6108 169.472 93.7757 168.452 97.0413C167.807 99.1057 165.808 100.274 165.521 102.506C165.368 103.691 164.757 104.793 164.514 105.971C164.21 107.444 164.454 109.237 164.454 110.753C164.454 113.098 165.452 114.667 166.618 116.534C167.913 118.606 169.619 120.826 171.218 122.598C172.403 123.912 175.19 124.397 176.765 124.397C178.513 124.397 180.232 124.493 181.906 124.081C182.416 123.955 183.394 123.555 183.665 123.031C184.438 121.531 186.104 120.382 186.581 118.699C187.631 114.997 188.558 110.953 186.912 107.304C185.8 104.841 182.971 102.206 180.297 102.206C178.953 102.206 177.024 102.264 176.645 104.155C176.364 105.555 174.787 107.993 175.878 109.336C176.719 110.372 177.835 112.611 179.335 111.502" stroke="#DDA6E1" stroke-linecap="round" stroke-linejoin="round"/>
<ellipse cx="208.9" cy="76.8312" rx="2.72686" ry="2.9128" fill="#A80E86"/>
<path d="M205.905 65.3463C205.432 60.4086 203.522 55.6679 203.522 50.7139C203.522 48.0812 203.649 45.575 204.317 43.0795C205.026 40.4283 207.99 38.9558 210.272 38.4141C212.512 37.8824 214.718 37.5548 216.471 39.4273C217.266 40.2769 217.419 42.312 217.419 43.5037C217.419 44.9459 215.274 47.1088 213.956 47.1088C212.822 47.1088 210.553 47.9602 209.677 46.7907C208.79 45.6066 208.955 44.0433 210.471 43.5037" stroke="#A80E86" stroke-linecap="round" stroke-linejoin="round"/>
<path d="M149.543 220.872L162.138 242.718H136.948L149.543 220.872Z" fill="#A6E1AC"/>
<ellipse rx="14.7974" ry="31.5419" transform="matrix(0.851151 0.524921 -0.475486 0.879723 184.407 205.899)" fill="#A6E1AC"/>
<ellipse cx="164.996" cy="218.93" rx="22.7238" ry="25.2443" fill="#0EA85E"/>
<path d="M174.994 204.01C172.936 203.12 170.778 202.155 168.635 201.628C167.084 201.246 165.087 201.611 163.494 201.611C160.212 201.611 156.472 205.776 155.452 209.041C154.807 211.106 152.808 212.274 152.521 214.506C152.368 215.691 151.757 216.793 151.514 217.971C151.21 219.444 151.454 221.237 151.454 222.753C151.454 225.098 152.452 226.667 153.618 228.534C154.913 230.606 156.619 232.826 158.218 234.598C159.403 235.912 162.19 236.397 163.765 236.397C165.513 236.397 167.232 236.493 168.906 236.081C169.416 235.955 170.394 235.555 170.665 235.031C171.438 233.531 173.104 232.382 173.581 230.699C174.631 226.997 175.558 222.953 173.912 219.304C172.8 216.841 169.971 214.206 167.297 214.206C165.953 214.206 164.024 214.264 163.645 216.155C163.364 217.555 161.787 219.993 162.878 221.336C163.719 222.372 164.835 224.611 166.335 223.502" stroke="#A6E1AC" stroke-linecap="round" stroke-linejoin="round"/>
<ellipse cx="195.9" cy="188.831" rx="2.72686" ry="2.9128" fill="#0EA85E"/>
<path d="M192.905 177.346C192.432 172.409 190.522 167.668 190.522 162.714C190.522 160.081 190.649 157.575 191.317 155.08C192.026 152.428 194.99 150.956 197.272 150.414C199.512 149.882 201.718 149.555 203.471 151.427C204.266 152.277 204.419 154.312 204.419 155.504C204.419 156.946 202.274 159.109 200.956 159.109C199.822 159.109 197.553 159.96 196.677 158.791C195.79 157.607 195.955 156.043 197.471 155.504" stroke="#0EA85E" stroke-linecap="round" stroke-linejoin="round"/>
<path d="M225.543 220.872L238.138 242.718H212.948L225.543 220.872Z" fill="#A6E1D0"/>
<ellipse rx="14.7974" ry="31.5419" transform="matrix(0.851151 0.524921 -0.475486 0.879723 260.407 205.899)" fill="#A6E1D0"/>
<ellipse cx="240.996" cy="218.93" rx="22.7238" ry="25.2443" fill="#0E95A8"/>
<path d="M250.994 204.01C248.936 203.12 246.778 202.155 244.635 201.628C243.084 201.246 241.087 201.611 239.494 201.611C236.212 201.611 232.472 205.776 231.452 209.041C230.807 211.106 228.808 212.274 228.521 214.506C228.368 215.691 227.757 216.793 227.514 217.971C227.21 219.444 227.454 221.237 227.454 222.753C227.454 225.098 228.452 226.667 229.618 228.534C230.913 230.606 232.619 232.826 234.218 234.598C235.403 235.912 238.19 236.397 239.765 236.397C241.513 236.397 243.232 236.493 244.906 236.081C245.416 235.955 246.394 235.555 246.665 235.031C247.438 233.531 249.104 232.382 249.581 230.699C250.631 226.997 251.558 222.953 249.912 219.304C248.8 216.841 245.971 214.206 243.297 214.206C241.953 214.206 240.024 214.264 239.645 216.155C239.364 217.555 237.787 219.993 238.878 221.336C239.719 222.372 240.835 224.611 242.335 223.502" stroke="#A6E1D0" stroke-linecap="round" stroke-linejoin="round"/>
<ellipse cx="271.9" cy="188.831" rx="2.72686" ry="2.9128" fill="#0E95A8"/>
<path d="M268.905 177.346C268.432 172.409 266.522 167.668 266.522 162.714C266.522 160.081 266.649 157.575 267.317 155.08C268.026 152.428 270.99 150.956 273.272 150.414C275.512 149.882 277.718 149.555 279.471 151.427C280.266 152.277 280.419 154.312 280.419 155.504C280.419 156.946 278.274 159.109 276.956 159.109C275.822 159.109 273.553 159.96 272.677 158.791C271.79 157.607 271.955 156.043 273.471 155.504" stroke="#0E95A8" stroke-linecap="round" stroke-linejoin="round"/>
<path d="M626.337 80.3752C628.281 77.1502 632.957 77.1502 634.901 80.3752L655.494 114.538C657.503 117.87 655.103 122.119 651.212 122.119H610.026C606.135 122.119 603.735 117.87 605.744 114.538L626.337 80.3752Z" fill="#A80E86"/>
<path d="M629.115 42.3281C629.743 40.551 632.257 40.551 632.885 42.328L639.06 59.7765C639.343 60.5753 640.098 61.1093 640.945 61.1093H660.538C662.517 61.1093 663.294 63.6751 661.648 64.7731L646.099 75.1459C645.338 75.6539 645.018 76.614 645.324 77.4769L651.33 94.452C651.972 96.265 649.935 97.8502 648.335 96.783L632.11 85.959C631.438 85.5107 630.562 85.5107 629.89 85.959L613.665 96.783C612.065 97.8502 610.028 96.265 610.67 94.452L616.676 77.4769C616.982 76.614 616.662 75.6539 615.901 75.1459L600.352 64.7731C598.706 63.6751 599.483 61.1093 601.462 61.1093H621.055C621.902 61.1093 622.657 60.5753 622.94 59.7765L629.115 42.3281Z" fill="#A80E86"/>
<rect x="691" y="92.88" width="64" height="28.12" rx="2" fill="#3F0EA8"/>
<rect x="696.225" y="75.12" width="53.551" height="28.12" rx="2" fill="#3F0EA8"/>
<path d="M704.061 49C704.061 47.8954 704.957 47 706.061 47H738.633C739.737 47 740.633 47.8954 740.633 49V73.12C740.633 74.2246 739.737 75.12 738.633 75.12H706.061C704.957 75.12 704.061 74.2246 704.061 73.12V49Z" fill="#3F0EA8"/>
<ellipse cx="412.444" cy="213.625" rx="32.4444" ry="30.625" fill="#675B5B"/>
<ellipse cx="423.259" cy="247.167" rx="10.8148" ry="5.83333" fill="black"/>
<ellipse cx="396.222" cy="244.25" rx="10.8148" ry="5.83333" fill="black"/>
<path d="M453 226.75C453 233.193 448.158 238.417 442.185 238.417C436.212 238.417 431.37 233.193 431.37 226.75C431.37 220.307 436.212 215.083 442.185 215.083C448.158 215.083 453 220.307 453 226.75Z" fill="#675B5B"/>
<path d="M395.037 217.752C394.957 217.87 394.783 217.87 394.704 217.752L389.225 209.561C389.136 209.428 389.231 209.25 389.391 209.25H400.35C400.51 209.25 400.605 209.428 400.516 209.561L395.037 217.752Z" fill="#C4C4C4"/>
<path d="M385.407 230.235C387.07 230.573 388.617 231.438 390.197 232.065C391.666 232.647 393.29 232.925 394.818 233.287C397.428 233.905 400.288 234.135 402.905 233.429C404.548 232.986 406.379 231.275 407.124 229.667" stroke="#EC4646" stroke-linecap="round" stroke-linejoin="round"/>
<path d="M132.608 298.216C131.28 298.216 130.064 298.048 128.96 297.712C127.856 297.36 126.92 296.872 126.152 296.248L126.944 294.28C127.744 294.888 128.6 295.344 129.512 295.648C130.424 295.952 131.456 296.104 132.608 296.104C133.968 296.104 134.968 295.864 135.608 295.384C136.264 294.888 136.592 294.248 136.592 293.464C136.592 292.824 136.36 292.32 135.896 291.952C135.432 291.568 134.656 291.264 133.568 291.04L131 290.512C129.48 290.192 128.344 289.664 127.592 288.928C126.856 288.192 126.488 287.2 126.488 285.952C126.488 284.944 126.752 284.056 127.28 283.288C127.824 282.52 128.576 281.928 129.536 281.512C130.496 281.08 131.6 280.864 132.848 280.864C134 280.864 135.064 281.04 136.04 281.392C137.032 281.728 137.872 282.224 138.56 282.88L137.744 284.776C136.384 283.576 134.744 282.976 132.824 282.976C131.64 282.976 130.696 283.24 129.992 283.768C129.304 284.296 128.96 285 128.96 285.88C128.96 286.552 129.176 287.088 129.608 287.488C130.04 287.888 130.76 288.192 131.768 288.4L134.312 288.928C135.912 289.264 137.104 289.784 137.888 290.488C138.672 291.176 139.064 292.112 139.064 293.296C139.064 294.288 138.8 295.152 138.272 295.888C137.744 296.624 137 297.2 136.04 297.616C135.08 298.016 133.936 298.216 132.608 298.216ZM141.634 298V286.288H143.986V288.232C144.386 287.528 144.93 286.992 145.618 286.624C146.322 286.256 147.106 286.072 147.97 286.072C150.738 286.072 152.122 287.64 152.122 290.776V298H149.698V290.92C149.698 289.912 149.498 289.176 149.098 288.712C148.714 288.248 148.106 288.016 147.274 288.016C146.298 288.016 145.514 288.328 144.922 288.952C144.346 289.56 144.058 290.368 144.058 291.376V298H141.634ZM159.206 298.216C158.39 298.216 157.662 298.056 157.022 297.736C156.382 297.416 155.87 296.984 155.486 296.44C155.118 295.896 154.934 295.28 154.934 294.592C154.934 293.728 155.15 293.048 155.582 292.552C156.03 292.056 156.758 291.696 157.766 291.472C158.79 291.248 160.166 291.136 161.894 291.136H162.71V290.512C162.71 289.6 162.518 288.944 162.134 288.544C161.75 288.144 161.118 287.944 160.238 287.944C159.566 287.944 158.894 288.048 158.222 288.256C157.55 288.448 156.862 288.76 156.158 289.192L155.414 287.488C156.022 287.056 156.782 286.712 157.694 286.456C158.606 286.2 159.478 286.072 160.31 286.072C161.91 286.072 163.094 286.456 163.862 287.224C164.63 287.976 165.014 289.16 165.014 290.776V298H162.734V296.056C162.446 296.728 161.998 297.256 161.39 297.64C160.782 298.024 160.054 298.216 159.206 298.216ZM159.686 296.488C160.55 296.488 161.27 296.184 161.846 295.576C162.422 294.968 162.71 294.2 162.71 293.272V292.624H161.918C160.75 292.624 159.83 292.68 159.158 292.792C158.502 292.904 158.03 293.096 157.742 293.368C157.47 293.624 157.334 293.984 157.334 294.448C157.334 295.056 157.542 295.552 157.958 295.936C158.374 296.304 158.95 296.488 159.686 296.488ZM168.136 283.576V281.056H170.968V283.576H168.136ZM168.352 298V286.288H170.776V298H168.352ZM178.004 298.216C176.724 298.216 175.764 297.856 175.124 297.136C174.5 296.416 174.188 295.36 174.188 293.968V281.08H176.612V293.824C176.612 295.408 177.26 296.2 178.556 296.2C178.748 296.2 178.924 296.192 179.084 296.176C179.26 296.16 179.436 296.128 179.612 296.08L179.564 298.024C179.02 298.152 178.5 298.216 178.004 298.216ZM188.093 298V281.08H198.845V283.096H190.589V288.496H198.341V290.512H190.589V298H188.093ZM204.393 298.216C203.577 298.216 202.849 298.056 202.209 297.736C201.569 297.416 201.057 296.984 200.673 296.44C200.305 295.896 200.121 295.28 200.121 294.592C200.121 293.728 200.337 293.048 200.769 292.552C201.217 292.056 201.945 291.696 202.953 291.472C203.977 291.248 205.353 291.136 207.081 291.136H207.897V290.512C207.897 289.6 207.705 288.944 207.321 288.544C206.937 288.144 206.305 287.944 205.425 287.944C204.753 287.944 204.081 288.048 203.409 288.256C202.737 288.448 202.049 288.76 201.345 289.192L200.601 287.488C201.209 287.056 201.969 286.712 202.881 286.456C203.793 286.2 204.665 286.072 205.497 286.072C207.097 286.072 208.281 286.456 209.049 287.224C209.817 287.976 210.201 289.16 210.201 290.776V298H207.921V296.056C207.633 296.728 207.185 297.256 206.577 297.64C205.969 298.024 205.241 298.216 204.393 298.216ZM204.873 296.488C205.737 296.488 206.457 296.184 207.033 295.576C207.609 294.968 207.897 294.2 207.897 293.272V292.624H207.105C205.937 292.624 205.017 292.68 204.345 292.792C203.689 292.904 203.217 293.096 202.929 293.368C202.657 293.624 202.521 293.984 202.521 294.448C202.521 295.056 202.729 295.552 203.145 295.936C203.561 296.304 204.137 296.488 204.873 296.488ZM213.588 298V286.288H215.94V288.184C216.292 287.512 216.78 286.992 217.404 286.624C218.028 286.256 218.756 286.072 219.588 286.072C221.38 286.072 222.54 286.856 223.068 288.424C223.436 287.688 223.964 287.112 224.652 286.696C225.34 286.28 226.124 286.072 227.004 286.072C229.628 286.072 230.94 287.64 230.94 290.776V298H228.516V290.896C228.516 289.904 228.34 289.176 227.988 288.712C227.652 288.248 227.092 288.016 226.308 288.016C225.428 288.016 224.732 288.328 224.22 288.952C223.708 289.56 223.452 290.392 223.452 291.448V298H221.028V290.896C221.028 289.904 220.86 289.176 220.524 288.712C220.188 288.248 219.628 288.016 218.844 288.016C217.964 288.016 217.268 288.328 216.756 288.952C216.26 289.56 216.012 290.392 216.012 291.448V298H213.588ZM234.113 283.576V281.056H236.945V283.576H234.113ZM234.329 298V286.288H236.753V298H234.329ZM243.981 298.216C242.701 298.216 241.741 297.856 241.101 297.136C240.477 296.416 240.165 295.36 240.165 293.968V281.08H242.589V293.824C242.589 295.408 243.237 296.2 244.533 296.2C244.725 296.2 244.901 296.192 245.061 296.176C245.237 296.16 245.413 296.128 245.589 296.08L245.541 298.024C244.997 298.152 244.477 298.216 243.981 298.216ZM248.42 302.32L250.508 297.688L245.612 286.288H248.204L251.804 295.192L255.452 286.288H257.948L250.964 302.32H248.42Z" fill="black"/>
<path d="M329.968 298V281.08H337.024C338.784 281.08 340.144 281.472 341.104 282.256C342.08 283.024 342.568 284.104 342.568 285.496C342.568 286.408 342.328 287.192 341.848 287.848C341.368 288.504 340.712 288.984 339.88 289.288C340.856 289.544 341.616 290.016 342.16 290.704C342.704 291.392 342.976 292.264 342.976 293.32C342.976 294.824 342.472 295.984 341.464 296.8C340.472 297.6 339.088 298 337.312 298H329.968ZM332.368 288.472H336.64C338.976 288.472 340.144 287.56 340.144 285.736C340.144 283.912 338.976 283 336.64 283H332.368V288.472ZM332.368 296.08H337.024C339.376 296.08 340.552 295.128 340.552 293.224C340.552 291.336 339.376 290.392 337.024 290.392H332.368V296.08ZM349.807 298.216C348.991 298.216 348.263 298.056 347.623 297.736C346.983 297.416 346.471 296.984 346.087 296.44C345.719 295.896 345.535 295.28 345.535 294.592C345.535 293.728 345.751 293.048 346.183 292.552C346.631 292.056 347.359 291.696 348.367 291.472C349.391 291.248 350.767 291.136 352.495 291.136H353.311V290.512C353.311 289.6 353.119 288.944 352.735 288.544C352.351 288.144 351.719 287.944 350.839 287.944C350.167 287.944 349.495 288.048 348.823 288.256C348.151 288.448 347.463 288.76 346.759 289.192L346.015 287.488C346.623 287.056 347.383 286.712 348.295 286.456C349.207 286.2 350.079 286.072 350.911 286.072C352.511 286.072 353.695 286.456 354.463 287.224C355.231 287.976 355.615 289.16 355.615 290.776V298H353.335V296.056C353.047 296.728 352.599 297.256 351.991 297.64C351.383 298.024 350.655 298.216 349.807 298.216ZM350.287 296.488C351.151 296.488 351.871 296.184 352.447 295.576C353.023 294.968 353.311 294.2 353.311 293.272V292.624H352.519C351.351 292.624 350.431 292.68 349.759 292.792C349.103 292.904 348.631 293.096 348.343 293.368C348.071 293.624 347.935 293.984 347.935 294.448C347.935 295.056 348.143 295.552 348.559 295.936C348.975 296.304 349.551 296.488 350.287 296.488ZM362.77 298.216C361.49 298.216 360.53 297.856 359.89 297.136C359.266 296.416 358.954 295.36 358.954 293.968V281.08H361.378V293.824C361.378 295.408 362.026 296.2 363.322 296.2C363.514 296.2 363.69 296.192 363.85 296.176C364.026 296.16 364.202 296.128 364.378 296.08L364.33 298.024C363.786 298.152 363.266 298.216 362.77 298.216ZM370.637 298.216C369.613 298.216 368.709 297.976 367.925 297.496C367.157 297 366.557 296.296 366.125 295.384C365.693 294.472 365.477 293.392 365.477 292.144C365.477 290.896 365.693 289.824 366.125 288.928C366.557 288.016 367.157 287.312 367.925 286.816C368.693 286.32 369.597 286.072 370.637 286.072C371.517 286.072 372.301 286.264 372.989 286.648C373.677 287.032 374.189 287.552 374.525 288.208V281.08H376.949V298H374.573V295.96C374.237 296.664 373.717 297.216 373.013 297.616C372.325 298.016 371.533 298.216 370.637 298.216ZM371.261 296.344C372.253 296.344 373.053 295.984 373.661 295.264C374.269 294.544 374.573 293.504 374.573 292.144C374.573 290.784 374.269 289.752 373.661 289.048C373.053 288.328 372.253 287.968 371.261 287.968C370.253 287.968 369.445 288.328 368.837 289.048C368.229 289.752 367.925 290.784 367.925 292.144C367.925 293.504 368.229 294.544 368.837 295.264C369.445 295.984 370.253 296.344 371.261 296.344ZM385.44 298.216C384.256 298.216 383.232 297.968 382.368 297.472C381.504 296.976 380.832 296.28 380.352 295.384C379.888 294.472 379.656 293.392 379.656 292.144C379.656 290.896 379.888 289.824 380.352 288.928C380.832 288.016 381.504 287.312 382.368 286.816C383.232 286.32 384.256 286.072 385.44 286.072C386.592 286.072 387.6 286.32 388.464 286.816C389.328 287.312 390 288.016 390.48 288.928C390.96 289.824 391.2 290.896 391.2 292.144C391.2 293.392 390.96 294.472 390.48 295.384C390 296.28 389.328 296.976 388.464 297.472C387.6 297.968 386.592 298.216 385.44 298.216ZM385.44 296.344C386.432 296.344 387.232 295.984 387.84 295.264C388.448 294.544 388.752 293.504 388.752 292.144C388.752 290.784 388.448 289.752 387.84 289.048C387.232 288.328 386.432 287.968 385.44 287.968C384.432 287.968 383.624 288.328 383.016 289.048C382.408 289.752 382.104 290.784 382.104 292.144C382.104 293.504 382.408 294.544 383.016 295.264C383.624 295.984 384.432 296.344 385.44 296.344ZM405.219 298.216C403.747 298.216 402.651 297.84 401.931 297.088C401.211 296.336 400.851 295.248 400.851 293.824V288.16H398.571V286.288H400.851V282.76H403.275V286.288H406.899V288.16H403.275V293.632C403.275 294.48 403.451 295.12 403.803 295.552C404.171 295.984 404.763 296.2 405.579 296.2C405.835 296.2 406.083 296.176 406.323 296.128C406.563 296.064 406.803 295.992 407.043 295.912L407.427 297.736C407.187 297.88 406.851 297.992 406.419 298.072C406.003 298.168 405.603 298.216 405.219 298.216ZM408.993 298V281.08H411.417V288.112C411.817 287.44 412.353 286.936 413.025 286.6C413.713 286.248 414.481 286.072 415.329 286.072C418.097 286.072 419.481 287.64 419.481 290.776V298H417.057V290.92C417.057 289.912 416.857 289.176 416.457 288.712C416.073 288.248 415.465 288.016 414.633 288.016C413.657 288.016 412.873 288.328 412.281 288.952C411.705 289.56 411.417 290.368 411.417 291.376V298H408.993ZM428.317 298.216C426.397 298.216 424.885 297.68 423.781 296.608C422.677 295.52 422.125 294.04 422.125 292.168C422.125 290.968 422.365 289.912 422.845 289C423.341 288.072 424.021 287.352 424.885 286.84C425.749 286.328 426.741 286.072 427.861 286.072C429.477 286.072 430.749 286.592 431.677 287.632C432.605 288.656 433.069 290.072 433.069 291.88V292.696H424.477C424.653 295.128 425.941 296.344 428.341 296.344C429.013 296.344 429.669 296.24 430.309 296.032C430.965 295.824 431.581 295.48 432.157 295L432.877 296.68C432.349 297.16 431.669 297.536 430.837 297.808C430.005 298.08 429.165 298.216 428.317 298.216ZM427.957 287.776C426.949 287.776 426.149 288.088 425.557 288.712C424.965 289.336 424.605 290.168 424.477 291.208H431.029C430.981 290.12 430.693 289.28 430.165 288.688C429.637 288.08 428.901 287.776 427.957 287.776ZM442.281 298V281.08H449.337C451.097 281.08 452.457 281.472 453.417 282.256C454.393 283.024 454.881 284.104 454.881 285.496C454.881 286.408 454.641 287.192 454.161 287.848C453.681 288.504 453.025 288.984 452.193 289.288C453.169 289.544 453.929 290.016 454.473 290.704C455.017 291.392 455.289 292.264 455.289 293.32C455.289 294.824 454.785 295.984 453.777 296.8C452.785 297.6 451.401 298 449.625 298H442.281ZM444.681 288.472H448.953C451.289 288.472 452.457 287.56 452.457 285.736C452.457 283.912 451.289 283 448.953 283H444.681V288.472ZM444.681 296.08H449.337C451.689 296.08 452.865 295.128 452.865 293.224C452.865 291.336 451.689 290.392 449.337 290.392H444.681V296.08ZM462.12 298.216C461.304 298.216 460.576 298.056 459.936 297.736C459.296 297.416 458.784 296.984 458.4 296.44C458.032 295.896 457.848 295.28 457.848 294.592C457.848 293.728 458.064 293.048 458.496 292.552C458.944 292.056 459.672 291.696 460.68 291.472C461.704 291.248 463.08 291.136 464.808 291.136H465.624V290.512C465.624 289.6 465.432 288.944 465.048 288.544C464.664 288.144 464.032 287.944 463.152 287.944C462.48 287.944 461.808 288.048 461.136 288.256C460.464 288.448 459.776 288.76 459.072 289.192L458.328 287.488C458.936 287.056 459.696 286.712 460.608 286.456C461.52 286.2 462.392 286.072 463.224 286.072C464.824 286.072 466.008 286.456 466.776 287.224C467.544 287.976 467.928 289.16 467.928 290.776V298H465.648V296.056C465.36 296.728 464.912 297.256 464.304 297.64C463.696 298.024 462.968 298.216 462.12 298.216ZM462.6 296.488C463.464 296.488 464.184 296.184 464.76 295.576C465.336 294.968 465.624 294.2 465.624 293.272V292.624H464.832C463.664 292.624 462.744 292.68 462.072 292.792C461.416 292.904 460.944 293.096 460.656 293.368C460.384 293.624 460.248 293.984 460.248 294.448C460.248 295.056 460.456 295.552 460.872 295.936C461.288 296.304 461.864 296.488 462.6 296.488ZM475.73 298.216C474.707 298.216 473.803 297.976 473.019 297.496C472.251 297 471.651 296.296 471.219 295.384C470.787 294.472 470.571 293.392 470.571 292.144C470.571 290.896 470.787 289.824 471.219 288.928C471.651 288.016 472.251 287.312 473.019 286.816C473.787 286.32 474.691 286.072 475.73 286.072C476.611 286.072 477.395 286.264 478.083 286.648C478.771 287.032 479.283 287.552 479.619 288.208V281.08H482.043V298H479.667V295.96C479.331 296.664 478.811 297.216 478.107 297.616C477.419 298.016 476.627 298.216 475.73 298.216ZM476.355 296.344C477.347 296.344 478.147 295.984 478.755 295.264C479.363 294.544 479.667 293.504 479.667 292.144C479.667 290.784 479.363 289.752 478.755 289.048C478.147 288.328 477.347 287.968 476.355 287.968C475.347 287.968 474.539 288.328 473.931 289.048C473.323 289.752 473.019 290.784 473.019 292.144C473.019 293.504 473.323 294.544 473.931 295.264C474.539 295.984 475.347 296.344 476.355 296.344ZM490.534 298.216C489.35 298.216 488.326 297.968 487.462 297.472C486.598 296.976 485.926 296.28 485.446 295.384C484.982 294.472 484.75 293.392 484.75 292.144C484.75 290.896 484.982 289.824 485.446 288.928C485.926 288.016 486.598 287.312 487.462 286.816C488.326 286.32 489.35 286.072 490.534 286.072C491.686 286.072 492.694 286.32 493.558 286.816C494.422 287.312 495.094 288.016 495.574 288.928C496.054 289.824 496.294 290.896 496.294 292.144C496.294 293.392 496.054 294.472 495.574 295.384C495.094 296.28 494.422 296.976 493.558 297.472C492.694 297.968 491.686 298.216 490.534 298.216ZM490.534 296.344C491.526 296.344 492.326 295.984 492.934 295.264C493.542 294.544 493.846 293.504 493.846 292.144C493.846 290.784 493.542 289.752 492.934 289.048C492.326 288.328 491.526 287.968 490.534 287.968C489.526 287.968 488.718 288.328 488.11 289.048C487.502 289.752 487.198 290.784 487.198 292.144C487.198 293.504 487.502 294.544 488.11 295.264C488.718 295.984 489.526 296.344 490.534 296.344Z" fill="black"/>
<path d="M593.312 298.216C591.696 298.216 590.296 297.864 589.112 297.16C587.928 296.44 587.008 295.432 586.352 294.136C585.712 292.824 585.392 291.288 585.392 289.528C585.392 287.752 585.712 286.216 586.352 284.92C587.008 283.624 587.928 282.624 589.112 281.92C590.296 281.216 591.696 280.864 593.312 280.864C594.912 280.864 596.304 281.216 597.488 281.92C598.688 282.624 599.608 283.624 600.248 284.92C600.904 286.216 601.232 287.744 601.232 289.504C601.232 291.28 600.904 292.824 600.248 294.136C599.608 295.432 598.688 296.44 597.488 297.16C596.304 297.864 594.912 298.216 593.312 298.216ZM593.312 296.056C594.992 296.056 596.296 295.488 597.224 294.352C598.168 293.2 598.64 291.592 598.64 289.528C598.64 287.464 598.176 285.864 597.248 284.728C596.32 283.592 595.008 283.024 593.312 283.024C591.632 283.024 590.32 283.592 589.376 284.728C588.448 285.864 587.984 287.464 587.984 289.528C587.984 291.592 588.448 293.2 589.376 294.352C590.32 295.488 591.632 296.056 593.312 296.056ZM610.601 298.216C609.705 298.216 608.913 298.016 608.225 297.616C607.537 297.216 607.025 296.68 606.689 296.008V298H604.313V281.08H606.737V288.184C607.089 287.544 607.601 287.032 608.273 286.648C608.961 286.264 609.737 286.072 610.601 286.072C611.641 286.072 612.545 286.32 613.313 286.816C614.097 287.312 614.697 288.016 615.113 288.928C615.545 289.824 615.761 290.896 615.761 292.144C615.761 293.392 615.545 294.472 615.113 295.384C614.697 296.296 614.097 297 613.313 297.496C612.545 297.976 611.641 298.216 610.601 298.216ZM610.001 296.344C611.009 296.344 611.809 295.984 612.401 295.264C613.009 294.544 613.313 293.504 613.313 292.144C613.313 290.784 613.009 289.752 612.401 289.048C611.809 288.328 611.009 287.968 610.001 287.968C608.993 287.968 608.185 288.328 607.577 289.048C606.985 289.752 606.689 290.784 606.689 292.144C606.689 293.504 606.985 294.544 607.577 295.264C608.185 295.984 608.993 296.344 610.001 296.344ZM622.597 298.216C621.637 298.216 620.741 298.096 619.909 297.856C619.077 297.6 618.381 297.248 617.821 296.8L618.517 295.168C619.109 295.584 619.757 295.904 620.461 296.128C621.181 296.352 621.901 296.464 622.621 296.464C623.469 296.464 624.109 296.312 624.541 296.008C624.973 295.704 625.189 295.296 625.189 294.784C625.189 294.368 625.045 294.048 624.757 293.824C624.469 293.584 624.037 293.4 623.461 293.272L621.181 292.816C619.165 292.4 618.157 291.36 618.157 289.696C618.157 288.592 618.597 287.712 619.477 287.056C620.357 286.4 621.509 286.072 622.933 286.072C623.749 286.072 624.525 286.192 625.261 286.432C626.013 286.672 626.637 287.032 627.133 287.512L626.437 289.144C625.957 288.728 625.405 288.408 624.781 288.184C624.157 287.96 623.541 287.848 622.933 287.848C622.101 287.848 621.469 288.008 621.037 288.328C620.605 288.632 620.389 289.048 620.389 289.576C620.389 290.376 620.917 290.888 621.973 291.112L624.253 291.568C625.293 291.776 626.077 292.128 626.605 292.624C627.149 293.12 627.421 293.792 627.421 294.64C627.421 295.76 626.981 296.64 626.101 297.28C625.221 297.904 624.053 298.216 622.597 298.216ZM634.993 298.216C633.521 298.216 632.425 297.84 631.705 297.088C630.985 296.336 630.625 295.248 630.625 293.824V288.16H628.345V286.288H630.625V282.76H633.049V286.288H636.673V288.16H633.049V293.632C633.049 294.48 633.225 295.12 633.577 295.552C633.945 295.984 634.537 296.2 635.353 296.2C635.609 296.2 635.857 296.176 636.097 296.128C636.337 296.064 636.577 295.992 636.817 295.912L637.201 297.736C636.961 297.88 636.625 297.992 636.193 298.072C635.777 298.168 635.377 298.216 634.993 298.216ZM642.511 298.216C641.695 298.216 640.967 298.056 640.327 297.736C639.687 297.416 639.175 296.984 638.791 296.44C638.423 295.896 638.239 295.28 638.239 294.592C638.239 293.728 638.455 293.048 638.887 292.552C639.335 292.056 640.063 291.696 641.071 291.472C642.095 291.248 643.471 291.136 645.199 291.136H646.015V290.512C646.015 289.6 645.823 288.944 645.439 288.544C645.055 288.144 644.423 287.944 643.543 287.944C642.871 287.944 642.199 288.048 641.527 288.256C640.855 288.448 640.167 288.76 639.463 289.192L638.719 287.488C639.327 287.056 640.087 286.712 640.999 286.456C641.911 286.2 642.783 286.072 643.615 286.072C645.215 286.072 646.399 286.456 647.167 287.224C647.935 287.976 648.319 289.16 648.319 290.776V298H646.039V296.056C645.751 296.728 645.303 297.256 644.695 297.64C644.087 298.024 643.359 298.216 642.511 298.216ZM642.991 296.488C643.855 296.488 644.575 296.184 645.151 295.576C645.727 294.968 646.015 294.2 646.015 293.272V292.624H645.223C644.055 292.624 643.135 292.68 642.463 292.792C641.807 292.904 641.335 293.096 641.047 293.368C640.775 293.624 640.639 293.984 640.639 294.448C640.639 295.056 640.847 295.552 641.263 295.936C641.679 296.304 642.255 296.488 642.991 296.488ZM656.817 298.216C655.617 298.216 654.577 297.968 653.697 297.472C652.833 296.96 652.161 296.248 651.681 295.336C651.201 294.408 650.961 293.32 650.961 292.072C650.961 290.216 651.489 288.752 652.545 287.68C653.601 286.608 655.025 286.072 656.817 286.072C657.553 286.072 658.281 286.2 659.001 286.456C659.721 286.712 660.313 287.064 660.777 287.512L660.009 289.216C659.561 288.8 659.065 288.496 658.521 288.304C657.993 288.096 657.489 287.992 657.009 287.992C655.873 287.992 654.993 288.352 654.369 289.072C653.761 289.776 653.457 290.784 653.457 292.096C653.457 293.408 653.761 294.44 654.369 295.192C654.993 295.928 655.873 296.296 657.009 296.296C657.489 296.296 657.993 296.2 658.521 296.008C659.065 295.8 659.561 295.488 660.009 295.072L660.777 296.8C660.313 297.232 659.713 297.576 658.977 297.832C658.257 298.088 657.537 298.216 656.817 298.216ZM666.676 298.216C665.396 298.216 664.436 297.856 663.796 297.136C663.172 296.416 662.86 295.36 662.86 293.968V281.08H665.284V293.824C665.284 295.408 665.932 296.2 667.228 296.2C667.42 296.2 667.596 296.192 667.756 296.176C667.932 296.16 668.108 296.128 668.284 296.08L668.236 298.024C667.692 298.152 667.172 298.216 666.676 298.216ZM675.575 298.216C673.655 298.216 672.143 297.68 671.039 296.608C669.935 295.52 669.383 294.04 669.383 292.168C669.383 290.968 669.623 289.912 670.103 289C670.599 288.072 671.279 287.352 672.143 286.84C673.007 286.328 673.999 286.072 675.119 286.072C676.735 286.072 678.007 286.592 678.935 287.632C679.863 288.656 680.327 290.072 680.327 291.88V292.696H671.735C671.911 295.128 673.199 296.344 675.599 296.344C676.271 296.344 676.927 296.24 677.567 296.032C678.223 295.824 678.839 295.48 679.415 295L680.135 296.68C679.607 297.16 678.927 297.536 678.095 297.808C677.263 298.08 676.423 298.216 675.575 298.216ZM675.215 287.776C674.207 287.776 673.407 288.088 672.815 288.712C672.223 289.336 671.863 290.168 671.735 291.208H678.287C678.239 290.12 677.951 289.28 677.423 288.688C676.895 288.08 676.159 287.776 675.215 287.776ZM687.074 298.216C686.114 298.216 685.218 298.096 684.386 297.856C683.554 297.6 682.858 297.248 682.298 296.8L682.994 295.168C683.586 295.584 684.234 295.904 684.938 296.128C685.658 296.352 686.378 296.464 687.098 296.464C687.946 296.464 688.586 296.312 689.018 296.008C689.45 295.704 689.666 295.296 689.666 294.784C689.666 294.368 689.522 294.048 689.234 293.824C688.946 293.584 688.514 293.4 687.938 293.272L685.658 292.816C683.642 292.4 682.634 291.36 682.634 289.696C682.634 288.592 683.074 287.712 683.954 287.056C684.834 286.4 685.986 286.072 687.41 286.072C688.226 286.072 689.002 286.192 689.738 286.432C690.49 286.672 691.114 287.032 691.61 287.512L690.914 289.144C690.434 288.728 689.882 288.408 689.258 288.184C688.634 287.96 688.018 287.848 687.41 287.848C686.578 287.848 685.946 288.008 685.514 288.328C685.082 288.632 684.866 289.048 684.866 289.576C684.866 290.376 685.394 290.888 686.45 291.112L688.73 291.568C689.77 291.776 690.554 292.128 691.082 292.624C691.626 293.12 691.898 293.792 691.898 294.64C691.898 295.76 691.458 296.64 690.578 297.28C689.698 297.904 688.53 298.216 687.074 298.216Z" fill="black"/>
<path d="M846.968 298V281.08H849.464V288.376H858.944V281.08H861.416V298H858.944V290.464H849.464V298H846.968ZM870.598 298.216C868.678 298.216 867.166 297.68 866.062 296.608C864.958 295.52 864.406 294.04 864.406 292.168C864.406 290.968 864.646 289.912 865.126 289C865.622 288.072 866.302 287.352 867.166 286.84C868.03 286.328 869.022 286.072 870.142 286.072C871.758 286.072 873.03 286.592 873.958 287.632C874.886 288.656 875.35 290.072 875.35 291.88V292.696H866.758C866.934 295.128 868.222 296.344 870.622 296.344C871.294 296.344 871.95 296.24 872.59 296.032C873.246 295.824 873.862 295.48 874.438 295L875.158 296.68C874.63 297.16 873.95 297.536 873.118 297.808C872.286 298.08 871.446 298.216 870.598 298.216ZM870.238 287.776C869.23 287.776 868.43 288.088 867.838 288.712C867.246 289.336 866.886 290.168 866.758 291.208H873.31C873.262 290.12 872.974 289.28 872.446 288.688C871.918 288.08 871.182 287.776 870.238 287.776ZM881.737 298.216C880.921 298.216 880.193 298.056 879.553 297.736C878.913 297.416 878.401 296.984 878.017 296.44C877.649 295.896 877.465 295.28 877.465 294.592C877.465 293.728 877.681 293.048 878.113 292.552C878.561 292.056 879.289 291.696 880.297 291.472C881.321 291.248 882.697 291.136 884.425 291.136H885.241V290.512C885.241 289.6 885.049 288.944 884.665 288.544C884.281 288.144 883.649 287.944 882.769 287.944C882.097 287.944 881.425 288.048 880.753 288.256C880.081 288.448 879.393 288.76 878.689 289.192L877.945 287.488C878.553 287.056 879.313 286.712 880.225 286.456C881.137 286.2 882.009 286.072 882.841 286.072C884.441 286.072 885.625 286.456 886.393 287.224C887.161 287.976 887.545 289.16 887.545 290.776V298H885.265V296.056C884.977 296.728 884.529 297.256 883.921 297.64C883.313 298.024 882.585 298.216 881.737 298.216ZM882.217 296.488C883.081 296.488 883.801 296.184 884.377 295.576C884.953 294.968 885.241 294.2 885.241 293.272V292.624H884.449C883.281 292.624 882.361 292.68 881.689 292.792C881.033 292.904 880.561 293.096 880.273 293.368C880.001 293.624 879.865 293.984 879.865 294.448C879.865 295.056 880.073 295.552 880.489 295.936C880.905 296.304 881.481 296.488 882.217 296.488ZM890.884 298V286.288H893.236V288.376C893.844 286.984 895.108 286.208 897.028 286.048L897.82 286L897.988 288.064L896.524 288.208C894.396 288.416 893.332 289.512 893.332 291.496V298H890.884ZM905.485 298.216C904.013 298.216 902.917 297.84 902.197 297.088C901.477 296.336 901.117 295.248 901.117 293.824V288.16H898.837V286.288H901.117V282.76H903.541V286.288H907.165V288.16H903.541V293.632C903.541 294.48 903.717 295.12 904.069 295.552C904.437 295.984 905.029 296.2 905.845 296.2C906.101 296.2 906.349 296.176 906.589 296.128C906.829 296.064 907.069 295.992 907.309 295.912L907.693 297.736C907.453 297.88 907.117 297.992 906.685 298.072C906.269 298.168 905.869 298.216 905.485 298.216ZM913.363 298.216C912.403 298.216 911.507 298.096 910.675 297.856C909.843 297.6 909.147 297.248 908.587 296.8L909.283 295.168C909.875 295.584 910.523 295.904 911.227 296.128C911.947 296.352 912.667 296.464 913.387 296.464C914.235 296.464 914.875 296.312 915.307 296.008C915.739 295.704 915.955 295.296 915.955 294.784C915.955 294.368 915.811 294.048 915.523 293.824C915.235 293.584 914.803 293.4 914.227 293.272L911.947 292.816C909.931 292.4 908.923 291.36 908.923 289.696C908.923 288.592 909.363 287.712 910.243 287.056C911.123 286.4 912.275 286.072 913.699 286.072C914.515 286.072 915.291 286.192 916.027 286.432C916.779 286.672 917.403 287.032 917.899 287.512L917.203 289.144C916.723 288.728 916.171 288.408 915.547 288.184C914.923 287.96 914.307 287.848 913.699 287.848C912.867 287.848 912.235 288.008 911.803 288.328C911.371 288.632 911.155 289.048 911.155 289.576C911.155 290.376 911.683 290.888 912.739 291.112L915.019 291.568C916.059 291.776 916.843 292.128 917.371 292.624C917.915 293.12 918.187 293.792 918.187 294.64C918.187 295.76 917.747 296.64 916.867 297.28C915.987 297.904 914.819 298.216 913.363 298.216ZM931.004 302.656C929.916 300.88 929.124 299.088 928.628 297.28C928.148 295.456 927.908 293.592 927.908 291.688C927.908 289.784 928.148 287.928 928.628 286.12C929.124 284.296 929.916 282.496 931.004 280.72L932.708 281.392C931.94 283.2 931.38 284.928 931.028 286.576C930.676 288.224 930.5 289.928 930.5 291.688C930.5 293.432 930.676 295.136 931.028 296.8C931.38 298.448 931.94 300.176 932.708 301.984L931.004 302.656ZM935.515 298V281.08H938.011V295.864H946.387V298H935.515ZM948.277 283.576V281.056H951.109V283.576H948.277ZM948.493 298V286.288H950.917V298H948.493ZM957.761 298L952.721 286.288H955.337L958.913 295.192L962.585 286.288H965.057L959.945 298H957.761ZM972.083 298.216C970.163 298.216 968.651 297.68 967.547 296.608C966.443 295.52 965.891 294.04 965.891 292.168C965.891 290.968 966.131 289.912 966.611 289C967.107 288.072 967.787 287.352 968.651 286.84C969.515 286.328 970.507 286.072 971.627 286.072C973.243 286.072 974.515 286.592 975.443 287.632C976.371 288.656 976.835 290.072 976.835 291.88V292.696H968.243C968.419 295.128 969.707 296.344 972.107 296.344C972.779 296.344 973.435 296.24 974.075 296.032C974.731 295.824 975.347 295.48 975.923 295L976.643 296.68C976.115 297.16 975.435 297.536 974.603 297.808C973.771 298.08 972.931 298.216 972.083 298.216ZM971.723 287.776C970.715 287.776 969.915 288.088 969.323 288.712C968.731 289.336 968.371 290.168 968.243 291.208H974.795C974.747 290.12 974.459 289.28 973.931 288.688C973.403 288.08 972.667 287.776 971.723 287.776ZM983.581 298.216C982.621 298.216 981.725 298.096 980.893 297.856C980.061 297.6 979.365 297.248 978.805 296.8L979.501 295.168C980.093 295.584 980.741 295.904 981.445 296.128C982.165 296.352 982.885 296.464 983.605 296.464C984.453 296.464 985.093 296.312 985.525 296.008C985.957 295.704 986.173 295.296 986.173 294.784C986.173 294.368 986.029 294.048 985.741 293.824C985.453 293.584 985.021 293.4 984.445 293.272L982.165 292.816C980.149 292.4 979.141 291.36 979.141 289.696C979.141 288.592 979.581 287.712 980.461 287.056C981.341 286.4 982.493 286.072 983.917 286.072C984.733 286.072 985.509 286.192 986.245 286.432C986.997 286.672 987.621 287.032 988.117 287.512L987.421 289.144C986.941 288.728 986.389 288.408 985.765 288.184C985.141 287.96 984.525 287.848 983.917 287.848C983.085 287.848 982.453 288.008 982.021 288.328C981.589 288.632 981.373 289.048 981.373 289.576C981.373 290.376 981.901 290.888 982.957 291.112L985.237 291.568C986.277 291.776 987.061 292.128 987.589 292.624C988.133 293.12 988.405 293.792 988.405 294.64C988.405 295.76 987.965 296.64 987.085 297.28C986.205 297.904 985.037 298.216 983.581 298.216ZM991.942 302.656L990.238 301.984C990.99 300.144 991.542 298.4 991.894 296.752C992.246 295.104 992.422 293.416 992.422 291.688C992.422 289.96 992.246 288.272 991.894 286.624C991.542 284.976 990.99 283.232 990.238 281.392L991.942 280.72C993.03 282.512 993.814 284.32 994.294 286.144C994.79 287.952 995.038 289.8 995.038 291.688C995.038 293.592 994.79 295.456 994.294 297.28C993.814 299.088 993.03 300.88 991.942 302.656Z" fill="black"/>
</svg>
