<svg width="93" height="103" viewBox="0 0 93 103" fill="none" xmlns="http://www.w3.org/2000/svg">
<path d="M17.4443 72.9351L32.5516 95.1087H2.3371L17.4443 72.9351Z" fill="#DDA6E1"/>
<ellipse rx="17.0407" ry="33.4193" transform="matrix(0.886538 0.462655 -0.538296 0.842756 59.2633 57.7375)" fill="#DDA6E1"/>
<ellipse cx="35.979" cy="70.9641" rx="27.2568" ry="25.6229" fill="#A80E86"/>
<path d="M47.9721 55.82C45.5041 54.9168 42.9146 53.9374 40.345 53.4019C38.4847 53.0142 36.0888 53.385 34.1785 53.385C30.2411 53.385 25.7555 57.6123 24.5321 60.9269C23.7587 63.0223 21.3611 64.2081 21.0161 66.4734C20.8329 67.6761 20.0995 68.7946 19.808 69.9907C19.4437 71.4856 19.7359 73.3057 19.7359 74.8439C19.7359 77.2246 20.9335 78.8168 22.3323 80.7117C23.885 82.815 25.9323 85.0687 27.8497 86.8669C29.2716 88.2004 32.614 88.6932 34.5031 88.6932C36.6003 88.6932 38.6616 88.7904 40.6696 88.3719C41.281 88.2445 42.455 87.8387 42.7792 87.3066C43.7069 85.784 45.705 84.6175 46.2772 82.91C47.5364 79.1524 48.6486 75.0475 46.6738 71.3435C45.3408 68.8431 41.9471 66.169 38.7403 66.169C37.1279 66.169 34.8137 66.2277 34.3588 68.1475C34.0221 69.5687 32.1304 72.0426 33.4393 73.4065C34.4478 74.4574 35.7861 76.7304 37.5863 75.6048" stroke="#DDA6E1" stroke-linecap="round" stroke-linejoin="round"/>
<ellipse cx="73.0482" cy="40.4136" rx="3.27082" ry="2.95649" fill="#A80E86"/>
<path d="M69.4557 28.7565C68.8886 23.7447 66.5981 18.9329 66.5981 13.9046C66.5981 11.2325 66.75 8.68859 67.5507 6.15572C68.4013 3.46476 71.9571 1.97017 74.6946 1.42031C77.3811 0.880671 80.0268 0.548075 82.1295 2.44871C83.0836 3.3111 83.2672 5.37671 83.2672 6.58621C83.2672 8.05005 80.6935 10.2454 79.1132 10.2454C77.7522 10.2454 75.0308 11.1096 73.9802 9.92252C72.9165 8.72069 73.1148 7.13395 74.9327 6.58621" stroke="#A80E86" stroke-linecap="round" stroke-linejoin="round"/>
</svg>
