<svg width="127" height="184" viewBox="0 0 127 184" fill="none" xmlns="http://www.w3.org/2000/svg">
<path d="M58.5488 69.7382C60.4801 66.4411 65.2462 66.4411 67.1775 69.7382L107.658 138.846C109.61 142.179 107.207 146.373 103.344 146.373H22.3827C18.5197 146.373 16.1159 142.179 18.0684 138.846L58.5488 69.7382Z" fill="#A80E86"/>
<path d="M61.6087 5.49999C62.2275 3.70048 64.7725 3.70049 65.3913 5.5L77.2925 40.1094C77.5702 40.9168 78.3299 41.459 79.1838 41.459H117.445C119.41 41.459 120.197 43.9958 118.577 45.1078L87.8217 66.2212C87.0807 66.7299 86.7701 67.6704 87.0623 68.5204L98.8552 102.815C99.482 104.637 97.4211 106.205 95.8319 105.114L64.6319 83.695C63.9499 83.2268 63.0501 83.2268 62.3681 83.695L31.1681 105.114C29.5789 106.205 27.518 104.637 28.1448 102.815L39.9377 68.5204C40.2299 67.6704 39.9193 66.7299 39.1783 66.2212L8.42309 45.1078C6.80326 43.9958 7.59024 41.459 9.55503 41.459H47.8162C48.6701 41.459 49.4298 40.9168 49.7075 40.1094L61.6087 5.49999Z" fill="#A80E86"/>
</svg>
