<svg width="213" height="223" viewBox="0 0 213 223" fill="none" xmlns="http://www.w3.org/2000/svg">
<rect x="80.6816" y="32.6708" width="45.1818" height="56.4314" rx="5" fill="#DDA6E1"/>
<path d="M101.655 2.22762C102.453 1.12818 104.092 1.12818 104.891 2.22761L131.71 39.1481C132.671 40.4702 131.726 42.3236 130.092 42.3236H76.4538C74.8198 42.3236 73.8753 40.4702 74.8357 39.1481L101.655 2.22762Z" fill="#DDA6E1"/>
<rect x="25.8179" y="56.4314" width="38.7273" height="35.6409" rx="5" fill="#DDA6E1"/>
<path d="M41.9649 28.8835C42.7647 27.8099 44.3729 27.8099 45.1726 28.8835L67.7402 59.1766C68.7231 60.4959 67.7815 62.3715 66.1364 62.3715H21.0011C19.356 62.3715 18.4145 60.4959 19.3973 59.1766L41.9649 28.8835Z" fill="#DDA6E1"/>
<rect x="12.9097" y="74.2518" width="190.409" height="83.1621" rx="27" fill="#DDA6E1"/>
<rect y="139.593" width="213" height="83.1621" rx="27" fill="#DDA6E1"/>
</svg>
